<svg xmlns="http://www.w3.org/2000/svg" viewBox="2330 495 24 24">
  <defs>
    <style>
      .cls-1 {
        fill: #00a7d7;
      }

      .cls-2 {
        fill: #fff;
      }
    </style>
  </defs>
  <g id="CleanWater" transform="translate(2328.22 493.22)">
    <rect id="Rectangle_8635" data-name="Rectangle 8635" class="cls-1" width="24" height="24" rx="3" transform="translate(1.78 1.78)"/>
    <path id="Path_4428" data-name="Path 4428" class="cls-2" d="M61.664,49.625a.111.111,0,0,0-.084-.036H52.355a.1.1,0,0,0-.107.124l1.55,9.372a.108.108,0,0,0,.107.091h1.9l.13,1.527h-.8L57,62.566,58.868,60.7h-.8l.13-1.524h1.935a.107.107,0,0,0,.105-.092l1.451-9.372a.11.11,0,0,0-.023-.085Zm-3.565,7.5a1.772,1.772,0,0,1-2.2,0,1.633,1.633,0,0,1-.2-1.993c.144-.278,1.21-1.874,1.3-2.009v-.01h0v.01c.089.136,1.154,1.73,1.3,2.009a1.623,1.623,0,0,1-.19,2Zm2.926-5.531a1.145,1.145,0,0,0-.865.053,4.053,4.053,0,0,1-3.128.254c-.758-.238-1.468-.734-2.307-.433a4.746,4.746,0,0,1-1.709.392L52.653,50h8.633Z" transform="translate(-43.189 -40.916)"/>
  </g>
</svg>
