<svg xmlns="http://www.w3.org/2000/svg" viewBox="2296 639 24 24">
  <defs>
    <style>
      .cls-1 {
        fill: #4a7634;
      }

      .cls-2 {
        fill: #fff;
      }
    </style>
  </defs>
  <g id="ClimateAction" transform="translate(2294.22 637.22)">
    <rect id="Rectangle_8636" data-name="Rectangle 8636" class="cls-1" width="24" height="24" rx="3" transform="translate(1.78 1.78)"/>
    <path id="Path_4429" data-name="Path 4429" class="cls-2" d="M36.08,54.932a12.24,12.24,0,0,0-19.644,0l-.076.11.076.111a12.241,12.241,0,0,0,19.644,0c.03-.043.056-.079.076-.111-.02-.032-.046-.068-.076-.11m-13.123-2.44c.053-.078.231-.3.252-.33a.316.316,0,0,1,.2-.082.146.146,0,0,1,.157.071.549.549,0,0,1-.055.262.685.685,0,0,1-.433.2c-.1-.014-.134-.089-.115-.118m-.212.421.022-.025a.552.552,0,0,1,.311-.12c.1-.017.239.035.257.1s-.257.193-.307.239c-.144.131-.366.4-.5.433a.156.156,0,0,1-.107-.012,4.086,4.086,0,0,1,.307-.614m2.221,4.546a1.175,1.175,0,0,1-.254.529.855.855,0,0,1-.562.215c-.187-.014-.213-.515-.213-.773,0-.089-.125.174-.192-.362-.042-.343-.262.036-.278-.193s-.125-.183-.242-.326-.26.014-.42.087-.094.108-.322.037h-.014a4.115,4.115,0,0,1-.324-1.608c0-.144.007-.277.02-.412a.248.248,0,0,1,.026-.039c.218-.258.213-.319.213-.319l.242-.084a4.037,4.037,0,0,1,.676.169c.239.089.616.288.835.2.159-.065.288-.151.268-.288-.017-.166-.144-.2-.306-.094-.058.04-.182-.249-.28-.235s.12.342.037.355-.249-.34-.277-.4-.156-.2-.271-.091c-.244.231-.639.218-.721.277-.242.18-.306-.059-.3-.206l.03-.1a.5.5,0,0,1,.464-.049c.107.071.183-.019.225-.062a.144.144,0,0,0,0-.167c-.027-.058.053-.1.108-.114a2.906,2.906,0,0,0,.313-.186,1.03,1.03,0,0,1,.627,0,.332.332,0,0,0,.412-.084,1.106,1.106,0,0,1,.3-.249c.061-.027-.144-.222-.317-.01s-.258.229-.337.229-.557-.118-.616-.27.144-.262.324-.349a4.22,4.22,0,0,1,.78-.111c.251-.055.577-.18.731-.071s-.676.294-.405.441c.1.053.538-.254.689-.332.355-.183-.345-.244-.254-.616.1-.421-.865-.258-1.337-.222a4.129,4.129,0,0,1,6.24,2.513.678.678,0,0,1-.02.192.27.27,0,0,1-.483.037c-.042-.061-.219-.228-.213.059s.278.316.014.487a1.018,1.018,0,0,1-.433.173.561.561,0,0,0-.211.5c.029.159.407.588.127.577a1.576,1.576,0,0,1-.64-.558c-.081-.216-.18-.451-.247-.623a.247.247,0,0,0-.389-.114c-.144.1.04.2-.065.417s-.18.407-.336.229c-.407-.473-.983-.245-1.082-.758-.049-.278-.288-.252-.49-.409s-.314-.242-.349-.127.632.624.678.758c.071.2-.2.375-.394.422s-.288-.11-.474-.31-.277-.343-.288-.186a.9.9,0,0,0,.379.685c.167.105.355.154.3.326s0,.075-.189.26a.484.484,0,0,0-.209.5c.019.252-.053.273-.094.487s-.133.029-.215.343m4.43-1.647c.144-.012.348.182.265.255a.369.369,0,0,1-.394-.035c-.1-.081.065-.215.128-.219m-.176-.127c-.045-.017-.084-.059-.118-.16a.092.092,0,0,1,.136-.118.4.4,0,0,1,.2.241c0,.068-.167.059-.212.042m-1.823,0a.372.372,0,0,1-.4-.036c-.1-.081.066-.215.128-.219.144-.013.348.182.267.255m-1.687.82c-.056.092-.212.787-.316.707s.042-.806.072-.865c.163-.3.516-.288.244.154M26.27,59.2a4.133,4.133,0,0,1-1.154-.166.17.17,0,0,1-.05-.2.921.921,0,0,1,.809-.493c.669-.065,1.55.433,1.69.353s.424-.448.839-.433a.65.65,0,0,1,.376.094,4.113,4.113,0,0,1-2.5.845M29.19,58a.708.708,0,0,1-.13-.048c-.225-.115-.2.069-.309.029s.125-.3-.208-.081-.242-.033-.386-.4a.749.749,0,0,1,.433-.882,5.234,5.234,0,0,1,.75-.2c.5-.124.6-.418.691-.239l.049.1a.653.653,0,0,1,.063.27A4.135,4.135,0,0,1,29.2,58m1.113-2.089c-.111-.03-.577-.672-.208-1.093.061-.069-.123-.274-.072-.277a.336.336,0,0,1,.361.288v.239a4.165,4.165,0,0,1-.087.843" transform="translate(-12.477 -41.263)"/>
  </g>
</svg>
