<svg xmlns="http://www.w3.org/2000/svg" viewBox="1834 927 24 24">
  <defs>
    <style>
      .cls-1 {
        fill: #931831;
      }

      .cls-2 {
        fill: #fff;
      }
    </style>
  </defs>
  <g id="DecentWork" transform="translate(1832.22 925.22)">
    <rect id="Rectangle_8646" data-name="Rectangle 8646" class="cls-1" width="24" height="24" rx="3" transform="translate(1.78 1.78)"/>
    <path id="Path_4445" data-name="Path 4445" class="cls-2" d="M103.105,60.842l-2.6,2.469a.433.433,0,0,0-.144.371V70.6a.144.144,0,0,0,.144.144h2.685a.144.144,0,0,0,.144-.144V60.9c0-.082-.063-.231-.234-.062" transform="translate(-84.368 -50.479)"/>
    <path id="Path_4446" data-name="Path 4446" class="cls-2" d="M51.255,83.116l-2.6,2.469a.433.433,0,0,0-.144.371v3.707a.144.144,0,0,0,.144.144H51.34a.144.144,0,0,0,.144-.144V83.174c0-.082-.065-.231-.234-.062" transform="translate(-39.994 -69.538)"/>
    <path id="Path_4447" data-name="Path 4447" class="cls-2" d="M54.713,40.078a.074.074,0,0,0-.022-.056A.078.078,0,0,0,54.644,40h-.036l-1.994.45h-.036a.079.079,0,0,0-.039.02.076.076,0,0,0,0,.107l.023.023.454.454-4.5,4.506-2.079-2.079a.059.059,0,0,0-.085,0l-.564.564h0l-3.334,3.334a.061.061,0,0,0,0,.085l.565.565a.059.059,0,0,0,.084,0L46.4,44.737l1.51,1.51h0l.564.564a.059.059,0,0,0,.085,0l5.11-5.11.477.476a.075.075,0,0,0,.107,0,.074.074,0,0,0,.022-.049h0L54.7,40.1Z" transform="translate(-34.796 -32.709)"/>
    <path id="Path_4448" data-name="Path 4448" class="cls-2" d="M77.368,86.145l-1.256,1.266a.061.061,0,0,1-.081,0l-1.138-1.154c-.208-.208-.254-.039-.254.042v5.958a.144.144,0,0,0,.144.144h2.682a.144.144,0,0,0,.144-.144V86.2c0-.082-.065-.231-.248-.046" transform="translate(-62.354 -72.132)"/>
  </g>
</svg>
