<svg xmlns="http://www.w3.org/2000/svg" viewBox="2330 543 24 24">
  <defs>
    <style>
      .cls-1 {
        fill: #e6331d;
      }

      .cls-2 {
        fill: #fff;
      }
    </style>
  </defs>
  <g id="GenderEquality" transform="translate(2328.22 541.22)">
    <rect id="Rectangle_8638" data-name="Rectangle 8638" class="cls-1" width="24" height="24" rx="3" transform="translate(1.78 1.78)"/>
    <path id="Path_4434" data-name="Path 4434" class="cls-2" d="M61.25,47.3H58.222a.039.039,0,0,0-.039.039v1.009a.039.039,0,0,0,.039.039h1.207l-1.34,1.34a3.967,3.967,0,1,0-2.959,7.055V57.94h-1.2a.039.039,0,0,0-.039.039v1.08a.039.039,0,0,0,.039.039h1.2v1.142a.039.039,0,0,0,.039.039h1.079a.039.039,0,0,0,.039-.039V59.1h1.2a.039.039,0,0,0,.039-.039v-1.08a.039.039,0,0,0-.039-.039h-1.2V56.76a3.965,3.965,0,0,0,2.6-6.2L60.2,49.239v1.128a.039.039,0,0,0,.039.039h1.009a.039.039,0,0,0,.039-.039V47.339a.039.039,0,0,0-.039-.039M55.64,55.764a2.921,2.921,0,1,1,2.921-2.914,2.921,2.921,0,0,1-2.921,2.914" transform="translate(-42.7 -38.957)"/>
    <path id="Path_4435" data-name="Path 4435" class="cls-2" d="M70.309,77.47h-3.54a.037.037,0,0,0-.039.035v.858a.036.036,0,0,0,.039.035h3.54a.036.036,0,0,0,.039-.035V77.5a.037.037,0,0,0-.039-.035" transform="translate(-55.584 -64.776)"/>
    <path id="Path_4436" data-name="Path 4436" class="cls-2" d="M70.309,88.09h-3.54a.037.037,0,0,0-.039.036v.858a.036.036,0,0,0,.039.035h3.54a.037.037,0,0,0,.039-.035v-.858a.037.037,0,0,0-.039-.036" transform="translate(-55.584 -73.865)"/>
  </g>
</svg>
