<svg xmlns="http://www.w3.org/2000/svg" viewBox="1834 975 24 24">
  <defs>
    <style>
      .cls-1 {
        fill: #289438;
      }

      .cls-2 {
        fill: #fff;
      }
    </style>
  </defs>
  <g id="GoodHealth" transform="translate(1832.22 973.22)">
    <rect id="Rectangle_8648" data-name="Rectangle 8648" class="cls-1" width="24" height="24" rx="3" transform="translate(1.78 1.78)"/>
    <path id="Path_4452" data-name="Path 4452" class="cls-2" d="M121.568,81.042a1.3,1.3,0,0,0-1.256-1.41,1.946,1.946,0,0,0-1.083.669c-.248-.255-.673-.671-1.053-.671a1.323,1.323,0,0,0-1.286,1.41,1.426,1.426,0,0,0,.4,1h0l1.94,1.944,1.937-1.941h0A1.426,1.426,0,0,0,121.568,81.042Z" transform="translate(-98.511 -66.624)"/>
    <path id="Path_4453" data-name="Path 4453" class="cls-2" d="M30.965,54.81h-.02a.319.319,0,0,1-.288-.264l-.991-5.738-1.493,2.767a.319.319,0,0,1-.6-.105l-.633-4.43-1.159,2.607a.319.319,0,0,1-.288.189H20.989a.319.319,0,1,1,0-.637h4.3l1.524-3.428a.319.319,0,0,1,.606.085l.655,4.565,1.471-2.728a.319.319,0,0,1,.594.1l.913,5.318,3.325-11.045a.319.319,0,0,1,.591-.046l1.749,3.627a.32.32,0,0,1-.577.277l-1.394-2.884L31.27,54.583a.319.319,0,0,1-.306.226Z" transform="translate(-16.166 -34.281)"/>
  </g>
</svg>
